# xmcd
#
# Track frame offsets: 
#        150
#        17648
#        40224
#        51087
#        67759
#        92017
#        104712
#        127159
#        135681
#        156972
#        179221
#        197454
#        239002
#        257729
#        273586
#
# Disc length: 4087 seconds
#
# Revision: 0
# Processed by: cddbd v1.5.2PL0 Copyright (c) Steve Scherf et al.
# Submitted via: ExactAudioCopy v0.99pb3
#
DISCID=e00ff50f
DTITLE=Stevie Ray Vaughn - The Essential Stevie Ray Vaughn [CD1]
DYEAR=2002
DGENRE=Blues
TTITLE0=Shake for Me (Live)
TTITLE1=Rude Mood - Hide Away (Live)
TTITLE2=Love Struck Baby
TTITLE3=Pride and Joy
TTITLE4=Texas Flood
TTITLE5=Mary Had a Little Lamb
TTITLE6=Lenny
TTITLE7=Scuttle Buttin'
TTITLE8=Couldn't Stand the Weather
TTITLE9=The Things (That) I Used to Do
TTITLE10=Cold Shot
TTITLE11=Tin Pan Alley
TTITLE12=Give Me Back my Wig
TTITLE13=Empty Arms
TTITLE14=The Sky is Crying (Live)
EXTD=
EXTT0=
EXTT1=
EXTT2=
EXTT3=
EXTT4=
EXTT5=
EXTT6=
EXTT7=
EXTT8=
EXTT9=
EXTT10=
EXTT11=
EXTT12=
EXTT13=
EXTT14=
PLAYORDER=
